<?xml version="1.0" standalone="no"?>
<!DOCTYPE svg PUBLIC "-//W3C//DTD SVG 20010904//EN"
 "http://www.w3.org/TR/2001/REC-SVG-20010904/DTD/svg10.dtd">
<svg version="1.0" xmlns="http://www.w3.org/2000/svg"
 width="1920.000000pt" height="1080.000000pt" viewBox="0 0 1920.000000 1080.000000"
 preserveAspectRatio="xMidYMid meet">

<g transform="translate(0.000000,1080.000000) scale(0.100000,-0.100000)"
fill="#000000" stroke="none">
<path d="M5740 7175 c-140 -24 -491 -82 -780 -129 -289 -48 -548 -93 -577
-101 -93 -27 -118 -66 -283 -445 l-145 -333 -13 49 c-50 189 -86 261 -182 367
-30 33 -95 91 -145 129 -49 37 -115 88 -145 114 -140 115 -438 211 -759 244
-247 25 -634 7 -862 -41 -454 -94 -700 -262 -849 -582 -37 -81 -90 -270 -92
-331 -1 -35 19 -115 33 -132 5 -6 8 -33 8 -60 -2 -118 47 -218 136 -278 42
-28 84 -42 250 -81 110 -26 201 -48 203 -50 5 -4 -107 -448 -115 -456 -5 -4
-167 -50 -361 -102 -386 -103 -403 -111 -449 -194 -29 -51 -73 -244 -73 -320
0 -58 28 -220 76 -430 51 -224 172 -415 349 -546 140 -104 243 -145 490 -194
142 -28 547 -26 714 5 361 65 647 149 869 254 71 34 85 38 95 25 32 -38 88
-68 159 -82 l76 -16 444 56 c244 31 470 62 504 69 l61 13 13 -29 c7 -17 14
-60 15 -96 6 -161 94 -266 245 -293 67 -12 86 -9 599 70 292 46 553 89 580 96
27 7 69 26 94 43 45 32 107 115 107 145 0 11 8 17 24 17 13 0 178 13 366 30
188 16 352 30 365 30 20 0 25 -6 30 -37 3 -21 13 -69 20 -106 27 -126 106
-205 233 -232 74 -15 44 -17 652 40 91 8 175 15 188 15 18 0 22 6 22 30 0 26
-4 30 -27 30 -16 0 -195 -14 -399 -31 -449 -37 -458 -37 -539 45 -56 56 -68
87 -81 214 -3 31 -10 69 -16 84 -8 23 -14 26 -41 22 -18 -2 -189 -18 -382 -34
-192 -16 -376 -32 -408 -36 l-57 -6 -11 -45 c-17 -67 -89 -136 -159 -153 -30
-7 -289 -50 -575 -94 -485 -77 -524 -81 -578 -70 -69 14 -116 45 -151 97 -27
42 -42 127 -32 178 4 22 0 39 -14 60 -12 15 -24 51 -27 78 l-6 50 -31 -23
c-42 -32 -80 -39 -477 -90 -526 -68 -554 -71 -624 -56 -51 10 -66 20 -109 64
l-51 51 -105 -51 c-238 -118 -570 -215 -910 -266 -340 -51 -766 -10 -972 93
-248 124 -414 344 -473 624 -14 66 -35 161 -45 212 -25 116 -25 223 0 336 22
98 51 159 89 184 13 9 194 62 400 118 l376 102 2 34 c1 19 29 142 62 274 33
132 57 243 53 246 -4 4 -106 30 -227 59 -147 35 -232 60 -258 76 -77 50 -125
155 -111 244 5 28 2 47 -9 64 -39 58 -40 103 -8 230 90 353 278 552 634 671
221 74 462 106 792 107 443 0 764 -72 985 -222 31 -21 62 -46 70 -56 8 -9 56
-48 106 -85 188 -141 270 -284 306 -533 9 -68 9 -96 -5 -176 -9 -52 -20 -106
-23 -120 -4 -14 -4 -23 -1 -20 3 3 103 228 222 500 120 272 229 510 243 529
13 18 39 39 57 47 50 20 1558 266 1645 268 87 1 126 -18 154 -78 12 -26 26
-38 52 -45 49 -13 96 -47 124 -88 28 -41 52 -137 45 -180 l-6 -32 38 15 c21 8
253 50 515 93 538 89 530 89 593 20 19 -22 35 -46 35 -54 0 -8 4 -15 9 -15 5
0 16 -2 24 -5 9 -4 32 26 73 96 67 114 102 143 192 155 49 6 52 8 52 35 0 25
-4 29 -27 29 -45 0 -126 -25 -165 -51 -20 -13 -55 -54 -79 -91 -23 -38 -45
-68 -48 -68 -3 0 -16 11 -28 24 -29 30 -78 53 -129 62 -27 4 -183 -18 -506
-70 -256 -42 -468 -76 -471 -76 -3 0 -10 24 -17 53 -7 28 -24 70 -39 91 -31
48 -116 116 -142 116 -11 0 -30 17 -46 41 -14 22 -45 51 -69 65 -69 41 -134
39 -424 -11z"/>
<path d="M5225 6941 c-424 -70 -782 -131 -796 -134 -15 -4 -33 -17 -41 -29 -8
-13 -174 -387 -369 -832 l-354 -808 -20 28 c-11 16 -58 68 -106 116 l-86 87
59 46 c69 53 173 190 223 293 69 140 92 336 60 494 -31 149 -122 283 -263 386
-37 27 -93 71 -125 99 -142 125 -380 203 -710 234 -166 15 -552 7 -706 -16
-443 -64 -706 -217 -840 -488 -54 -108 -92 -233 -93 -306 -1 -37 4 -48 27 -69
28 -23 28 -25 17 -82 -16 -87 7 -157 63 -194 13 -9 126 -41 252 -71 125 -31
244 -60 264 -65 l37 -10 -69 -273 c-38 -149 -69 -287 -69 -304 0 -31 23 -66
49 -74 9 -3 9 -17 0 -58 l-11 -53 -19 31 c-10 17 -30 33 -44 37 -33 8 -771
-189 -798 -213 -9 -9 -27 -48 -40 -87 -28 -91 -30 -257 -5 -361 9 -38 26 -119
38 -180 16 -85 32 -133 70 -210 140 -283 359 -422 734 -466 157 -18 470 -7
647 24 369 65 719 185 929 318 83 53 84 53 76 41 -4 -7 -4 -32 -1 -56 5 -32
17 -54 42 -80 56 -55 76 -55 607 14 439 56 471 62 502 85 36 28 66 87 155 302
46 113 57 132 79 136 14 3 27 3 29 1 3 -2 -21 -115 -52 -252 -32 -136 -57
-259 -57 -274 0 -17 11 -35 30 -51 30 -25 30 -27 19 -77 -16 -77 -4 -134 36
-175 58 -58 65 -57 659 35 292 45 540 86 551 90 46 17 83 70 95 134 l12 62
486 42 c268 23 497 45 510 48 20 6 22 3 22 -27 1 -19 7 -45 15 -59 8 -14 14
-37 15 -52 0 -15 5 -62 11 -104 11 -68 16 -81 49 -114 25 -25 50 -39 75 -43
35 -6 882 63 987 80 56 8 114 63 126 118 6 32 -15 181 -100 708 l-108 669 518
851 c285 469 522 867 525 886 12 60 -3 111 -44 152 -32 32 -46 39 -97 45 -55
6 -59 8 -54 30 5 30 -21 72 -54 84 -32 13 -929 -55 -962 -72 -13 -7 -56 -68
-98 -139 l-75 -127 -36 19 c-21 11 -52 19 -70 19 -34 0 -36 3 -47 53 -9 41
-41 67 -80 67 -64 0 -951 -151 -973 -166 -13 -8 -26 -26 -29 -41 -5 -17 27
-244 81 -584 l88 -557 -268 -372 c-147 -204 -269 -369 -271 -368 -1 2 60 465
136 1030 105 781 136 1035 130 1064 -17 76 -78 124 -159 124 -33 0 -42 3 -38
14 9 23 -12 85 -33 96 -10 5 -36 9 -57 9 -21 -1 -385 -59 -808 -128z m-3608
-2133 c-3 -8 -6 -5 -6 6 -1 11 2 17 5 13 3 -3 4 -12 1 -19z"/>
<path d="M13660 6919 c-606 -77 -952 -125 -966 -133 -13 -9 -143 -273 -360
-730 l-339 -717 -7 123 c-24 406 -159 719 -423 984 -95 95 -351 301 -451 361
-420 256 -1037 256 -1564 2 -224 -108 -401 -239 -600 -446 -298 -308 -460
-609 -540 -1002 -31 -153 -44 -357 -31 -494 12 -138 82 -490 117 -597 84 -252
275 -507 509 -683 117 -88 322 -189 445 -222 181 -47 274 -59 460 -59 182 1
334 20 508 65 277 72 538 211 781 415 l99 82 12 -117 c21 -205 39 -333 48
-345 5 -6 13 -42 17 -81 3 -38 10 -87 15 -109 11 -52 62 -103 114 -113 25 -6
219 0 503 13 510 24 515 25 560 92 25 38 38 122 30 192 l-6 47 97 6 c144 10
205 8 225 -7 15 -12 16 -19 6 -63 -27 -115 22 -204 117 -219 50 -7 909 58
1021 77 83 15 115 48 163 170 36 91 39 94 71 97 132 11 960 136 987 149 18 9
60 49 94 90 33 41 62 72 64 70 2 -2 -7 -34 -21 -71 -34 -89 -33 -118 5 -150
l31 -25 -12 -58 c-7 -34 -9 -75 -5 -98 10 -53 69 -110 123 -118 59 -10 1065
70 1107 87 18 8 44 29 58 47 15 21 246 652 579 1584 492 1376 554 1556 553
1606 -1 88 -46 135 -141 147 l-58 7 3 32 c3 24 -3 39 -23 59 l-27 27 -321 -7
c-465 -11 -700 -21 -715 -30 -7 -4 -89 -102 -183 -217 -94 -115 -175 -206
-180 -203 -5 3 -9 16 -9 30 0 15 -15 39 -39 63 -35 35 -48 41 -99 47 -55 6
-59 8 -54 30 5 30 -21 72 -53 84 -33 13 -932 -42 -963 -59 -13 -7 -30 -27 -37
-44 -7 -18 -133 -410 -280 -872 -147 -462 -269 -841 -270 -843 -2 -2 -12 -2
-23 0 -19 3 2 73 270 908 200 625 291 924 294 965 9 104 -41 165 -141 173
l-55 4 0 37 c0 55 -32 81 -96 80 -27 -1 -474 -55 -994 -120z m-3204 -1260 c88
-33 171 -118 194 -200 13 -43 -5 -211 -31 -297 -67 -218 -231 -416 -424 -512
-102 -50 -192 -70 -320 -69 -138 1 -145 4 -177 69 -38 78 -52 173 -45 315 16
334 202 599 482 688 107 34 239 36 321 6z"/>
<path d="M17145 7030 c-110 -4 -224 -8 -252 -9 -52 -1 -53 -1 -53 -32 l0 -31
223 6 c122 4 296 8 387 9 158 2 167 1 208 -23 27 -15 48 -37 60 -61 14 -31 25
-39 60 -49 30 -7 59 -26 92 -59 59 -59 79 -130 61 -218 -6 -30 -229 -667 -496
-1416 -267 -749 -510 -1432 -540 -1517 -45 -127 -55 -167 -55 -220 0 -120 -45
-236 581 1510 171 476 367 1020 435 1210 68 190 131 376 139 414 15 64 15 76
0 140 -10 45 -27 86 -45 110 -34 44 -115 106 -140 106 -9 0 -30 20 -47 43 -19
28 -49 53 -79 68 -44 22 -62 24 -194 25 -80 1 -235 -2 -345 -6z"/>
<path d="M6357 6380 c-8 -28 -185 -1344 -183 -1347 2 -2 76 100 166 225 121
167 164 234 163 253 -2 24 -129 845 -137 879 -1 9 -5 5 -9 -10z m48 -667 l32
-203 -75 -105 c-42 -58 -77 -103 -79 -101 -3 2 15 149 39 327 24 177 45 314
47 303 2 -10 18 -110 36 -221z"/>
<path d="M3737 5550 c-21 -32 -65 -87 -97 -123 l-59 -64 33 -32 33 -32 66 152
c37 84 66 154 64 155 -1 1 -19 -24 -40 -56z"/>
</g>
</svg>
